# MagicaVoxel @ Ephtracy

# group
o 

# material
mtllib Road.mtl
usemtl palette

# normals
vn -1 0 0
vn 1 0 0
vn 0 0 1
vn 0 0 -1
vn 0 -1 0
vn 0 1 0

# texcoords
vt 0.978516 0.5
vt 0.986328 0.5
vt 0.990234 0.5

# verts
v -7.5 -10 12.5
v -7.5 -10 -12.5
v -7.5 4 12.5
v -7.5 4 -12.5
v -7.5 9.9 12.5
v -7.5 9.9 -12.5
v 7.5 -10 12.5
v 7.5 -10 -12.5
v 7.5 9.9 12.5
v 7.5 9.9 -12.5
v -7.5 -10 12.5
v -7.5 4 12.5
v -7.5 9.9 12.5
v -5.2 4 12.5
v -5.2 9.9 12.5
v 7.5 -10 12.5
v 7.5 9.9 12.5
v -7.5 -10 -12.5
v -7.5 4 -12.5
v -7.5 9.9 -12.5
v -5.2 4 -12.5
v -5.2 9.9 -12.5
v 7.5 -10 -12.5
v 7.5 9.9 -12.5
v -7.5 -10 12.5
v 7.5 -10 12.5
v -7.5 -10 -12.5
v 7.5 -10 -12.5
v -7.5 9.9 12.5
v -5.2 9.9 12.5
v 7.5 9.9 12.5
v 1 9.9 12.1
v 1.7 9.9 12.1
v 1 9.9 11.3
v 1.7 9.9 11.3
v 5.5 9.9 11.1
v 6.2 9.9 11.1
v -3.7 9.9 10.9
v -2.4 9.9 10.9
v 5.4 9.9 10.9
v 5.5 9.9 10.9
v 6.2 9.9 10.9
v 6.3 9.9 10.9
v 5.5 9.9 10.5
v 6.2 9.9 10.5
v -3.3 9.9 10.2
v -2.7 9.9 10.2
v 5.4 9.9 10.1
v 6.3 9.9 10.1
v -3.7 9.9 9.7
v -3.3 9.9 9.7
v -2.7 9.9 9.7
v -2.4 9.9 9.7
v 4.9 9.9 9.7
v 6 9.9 9.7
v 4.9 9.9 9.4
v 5.8 9.9 9.4
v 5.8 9.9 9
v 6 9.9 9
v -0.3 9.9 8.9
v 0.3 9.9 8.9
v -0.6 9.9 8.8
v -0.3 9.9 8.8
v 0 9.9 8.8
v 4.9 9.9 8.8
v 5.8 9.9 8.8
v -0.6 9.9 8.3
v -0.3 9.9 8.3
v 0 9.9 8.3
v 2.4 9.9 8.3
v 3 9.9 8.3
v 4.2 9.9 8.3
v -0.3 9.9 8.1
v 0.3 9.9 8.1
v 3 9.9 7.9
v 3.5 9.9 7.9
v 4.2 9.9 7.9
v 2.4 9.9 7.8
v 3.5 9.9 7.8
v -2.9 9.9 7.5
v -1.8 9.9 7.5
v -3 9.9 7.2
v -2.9 9.9 7.2
v 4.7 9.9 6.6
v 5.1 9.9 6.6
v -2.9 9.9 6.5
v -2.2 9.9 6.5
v -1.8 9.9 6.5
v 4.5 9.9 6.4
v 4.7 9.9 6.4
v 5.1 9.9 6.4
v 5.3 9.9 6.4
v -3 9.9 6
v -2.2 9.9 6
v 4.5 9.9 5.6
v 4.7 9.9 5.6
v 5.1 9.9 5.6
v 5.3 9.9 5.6
v 4.7 9.9 5.5
v 5.1 9.9 5.5
v -0.2 9.9 5.2
v 0.6 9.9 5.2
v -1 9.9 5
v -0.2 9.9 5
v -0.2 9.9 4.6
v 0.2 9.9 4.6
v 0.6 9.9 4.6
v -1.4 9.9 4.3
v -1 9.9 4.3
v 0.2 9.9 4.3
v -1.4 9.9 4
v -1 9.9 4
v 2.7 9.9 3.6
v 3.3 9.9 3.6
v 2.8 9.9 3.1
v 3.2 9.9 3.1
v 2.7 9.9 2.9
v 2.8 9.9 2.9
v 3.2 9.9 2.9
v 3.3 9.9 2.9
v -2.3 9.9 2.5
v -1.5 9.9 2.5
v -2.9 9.9 2.4
v -2.3 9.9 2.4
v 5.2 9.9 2.1
v 5.9 9.9 2.1
v 5 9.9 2
v 5.2 9.9 2
v 5.9 9.9 2
v 6 9.9 2
v 5 9.9 1.2
v 6 9.9 1.2
v -2.3 9.9 1.1
v -1.6 9.9 1.1
v -1.5 9.9 1.1
v -2.9 9.9 0.8
v -1.6 9.9 0.8
v 2 9.9 0.400001
v 2.5 9.9 0.400001
v 1.6 9.9 0.3
v 1.8 9.9 0.3
v 2 9.9 0.3
v 1.6 9.9 -0.2
v 1.8 9.9 -0.2
v 2 9.9 -0.2
v 2.5 9.9 -0.2
v -1.5 9.9 -1.2
v -1 9.9 -1.2
v 4.8 9.9 -1.9
v 5.7 9.9 -1.9
v -1.5 9.9 -2.1
v -1 9.9 -2.1
v 4.8 9.9 -2.5
v 5.7 9.9 -2.5
v 0.5 9.9 -3.6
v 1.7 9.9 -3.6
v 0.5 9.9 -4.4
v 1 9.9 -4.4
v 3.2 9.9 -4.6
v 4.1 9.9 -4.6
v 1 9.9 -4.8
v 1.7 9.9 -4.8
v 3.2 9.9 -5.3
v 4 9.9 -5.3
v 4.1 9.9 -5.3
v 3.2 9.9 -6.5
v 4 9.9 -6.5
v 0 9.9 -7.7
v 1 9.9 -7.7
v -3.8 9.9 -8
v -2.8 9.9 -8
v 1 9.9 -8.4
v 1.2 9.9 -8.4
v 1 9.9 -8.5
v 1.2 9.9 -8.5
v -2.8 9.9 -8.7
v -2.7 9.9 -8.7
v 0 9.9 -9
v 1 9.9 -9
v -3.8 9.9 -9.2
v -3.6 9.9 -9.2
v -2.8 9.9 -9.2
v 4.4 9.9 -10.1
v 4.5 9.9 -10.1
v 5.2 9.9 -10.1
v 5.3 9.9 -10.1
v -3.6 9.9 -10.4
v -2.7 9.9 -10.4
v 1.1 9.9 -10.4
v 1.8 9.9 -10.4
v 4.5 9.9 -10.4
v 5.2 9.9 -10.4
v 1.2 9.9 -10.7
v 1.3 9.9 -10.7
v 4.4 9.9 -10.9
v 5.3 9.9 -10.9
v 1.2 9.9 -11.1
v 1.3 9.9 -11.1
v 1.1 9.9 -11.6
v 1.8 9.9 -11.6
v -7.5 9.9 -12.5
v -5.2 9.9 -12.5
v 7.5 9.9 -12.5

# faces
f 3/2/1 2/2/1 1/2/1
f 4/2/1 2/2/1 3/2/1
f 5/1/1 4/1/1 3/1/1
f 6/1/1 4/1/1 5/1/1
f 7/2/2 8/2/2 9/2/2
f 9/2/2 8/2/2 10/2/2
f 14/2/3 12/2/3 11/2/3
f 14/1/3 13/1/3 12/1/3
f 15/1/3 13/1/3 14/1/3
f 16/2/3 14/2/3 11/2/3
f 16/2/3 15/2/3 14/2/3
f 17/2/3 15/2/3 16/2/3
f 18/2/4 19/2/4 21/2/4
f 19/1/4 20/1/4 21/1/4
f 21/1/4 20/1/4 22/1/4
f 18/2/4 21/2/4 23/2/4
f 21/2/4 22/2/4 23/2/4
f 23/2/4 22/2/4 24/2/4
f 27/2/5 26/2/5 25/2/5
f 28/2/5 26/2/5 27/2/5
f 30/2/6 31/2/6 32/2/6
f 32/2/6 31/2/6 33/2/6
f 30/2/6 32/2/6 34/2/6
f 32/3/6 33/3/6 34/3/6
f 33/2/6 31/2/6 35/2/6
f 34/3/6 33/3/6 35/3/6
f 34/2/6 35/2/6 36/2/6
f 35/2/6 31/2/6 36/2/6
f 36/2/6 31/2/6 37/2/6
f 30/2/6 34/2/6 38/2/6
f 34/2/6 36/2/6 38/2/6
f 38/2/6 36/2/6 39/2/6
f 39/2/6 36/2/6 40/2/6
f 36/1/6 37/1/6 41/1/6
f 40/2/6 36/2/6 41/2/6
f 37/2/6 31/2/6 42/2/6
f 41/1/6 37/1/6 42/1/6
f 42/2/6 31/2/6 43/2/6
f 40/3/6 41/3/6 44/3/6
f 41/1/6 42/1/6 44/1/6
f 42/3/6 43/3/6 45/3/6
f 44/1/6 42/1/6 45/1/6
f 38/3/6 39/3/6 46/3/6
f 46/3/6 39/3/6 47/3/6
f 39/2/6 40/2/6 48/2/6
f 40/3/6 44/3/6 48/3/6
f 44/3/6 45/3/6 48/3/6
f 43/2/6 31/2/6 49/2/6
f 48/3/6 45/3/6 49/3/6
f 45/3/6 43/3/6 49/3/6
f 30/2/6 38/2/6 50/2/6
f 38/3/6 46/3/6 50/3/6
f 46/1/6 47/1/6 51/1/6
f 50/3/6 46/3/6 51/3/6
f 47/3/6 39/3/6 52/3/6
f 51/1/6 47/1/6 52/1/6
f 39/2/6 48/2/6 53/2/6
f 52/3/6 39/3/6 53/3/6
f 48/2/6 49/2/6 53/2/6
f 53/2/6 49/2/6 54/2/6
f 54/2/6 49/2/6 55/2/6
f 51/2/6 52/2/6 56/2/6
f 50/2/6 51/2/6 56/2/6
f 54/3/6 55/3/6 56/3/6
f 53/2/6 54/2/6 56/2/6
f 52/2/6 53/2/6 56/2/6
f 56/3/6 55/3/6 57/3/6
f 56/1/6 57/1/6 58/1/6
f 57/3/6 55/3/6 58/3/6
f 55/2/6 49/2/6 59/2/6
f 58/3/6 55/3/6 59/3/6
f 50/2/6 56/2/6 60/2/6
f 60/2/6 56/2/6 61/2/6
f 50/2/6 60/2/6 62/2/6
f 60/1/6 61/1/6 63/1/6
f 62/2/6 60/2/6 63/2/6
f 63/1/6 61/1/6 64/1/6
f 56/1/6 58/1/6 65/1/6
f 61/2/6 56/2/6 65/2/6
f 58/2/6 59/2/6 66/2/6
f 65/1/6 58/1/6 66/1/6
f 63/3/6 64/3/6 67/3/6
f 50/2/6 62/2/6 67/2/6
f 62/3/6 63/3/6 67/3/6
f 67/3/6 64/3/6 68/3/6
f 64/1/6 61/1/6 69/1/6
f 68/3/6 64/3/6 69/3/6
f 61/2/6 65/2/6 70/2/6
f 65/2/6 66/2/6 70/2/6
f 70/2/6 66/2/6 71/2/6
f 71/2/6 66/2/6 72/2/6
f 67/2/6 68/2/6 73/2/6
f 68/1/6 69/1/6 73/1/6
f 69/1/6 61/1/6 74/1/6
f 73/1/6 69/1/6 74/1/6
f 61/2/6 70/2/6 74/2/6
f 71/3/6 72/3/6 75/3/6
f 70/1/6 71/1/6 75/1/6
f 75/3/6 72/3/6 76/3/6
f 72/2/6 66/2/6 77/2/6
f 76/3/6 72/3/6 77/3/6
f 75/1/6 76/1/6 78/1/6
f 74/2/6 70/2/6 78/2/6
f 73/2/6 74/2/6 78/2/6
f 70/1/6 75/1/6 78/1/6
f 76/2/6 77/2/6 79/2/6
f 78/1/6 76/1/6 79/1/6
f 67/2/6 73/2/6 80/2/6
f 73/2/6 78/2/6 80/2/6
f 78/2/6 79/2/6 80/2/6
f 50/2/6 67/2/6 80/2/6
f 80/2/6 79/2/6 81/2/6
f 50/2/6 80/2/6 82/2/6
f 80/1/6 81/1/6 83/1/6
f 82/2/6 80/2/6 83/2/6
f 77/2/6 66/2/6 84/2/6
f 79/2/6 77/2/6 84/2/6
f 81/2/6 79/2/6 84/2/6
f 84/2/6 66/2/6 85/2/6
f 83/1/6 81/1/6 86/1/6
f 82/3/6 83/3/6 86/3/6
f 86/1/6 81/1/6 87/1/6
f 81/2/6 84/2/6 88/2/6
f 87/1/6 81/1/6 88/1/6
f 87/2/6 88/2/6 89/2/6
f 88/2/6 84/2/6 89/2/6
f 84/3/6 85/3/6 90/3/6
f 89/2/6 84/2/6 90/2/6
f 85/2/6 66/2/6 91/2/6
f 90/3/6 85/3/6 91/3/6
f 91/2/6 66/2/6 92/2/6
f 50/2/6 82/2/6 93/2/6
f 86/3/6 87/3/6 93/3/6
f 82/3/6 86/3/6 93/3/6
f 87/2/6 89/2/6 94/2/6
f 93/3/6 87/3/6 94/3/6
f 89/1/6 90/1/6 95/1/6
f 94/2/6 89/2/6 95/2/6
f 93/2/6 94/2/6 95/2/6
f 90/1/6 91/1/6 95/1/6
f 91/1/6 92/1/6 95/1/6
f 95/1/6 92/1/6 96/1/6
f 96/1/6 92/1/6 97/1/6
f 92/2/6 66/2/6 98/2/6
f 97/1/6 92/1/6 98/1/6
f 96/3/6 97/3/6 99/3/6
f 95/2/6 96/2/6 99/2/6
f 97/2/6 98/2/6 100/2/6
f 99/3/6 97/3/6 100/3/6
f 93/2/6 95/2/6 101/2/6
f 95/2/6 99/2/6 101/2/6
f 99/2/6 100/2/6 101/2/6
f 101/2/6 100/2/6 102/2/6
f 93/2/6 101/2/6 103/2/6
f 101/3/6 102/3/6 104/3/6
f 103/2/6 101/2/6 104/2/6
f 103/1/6 104/1/6 105/1/6
f 104/3/6 102/3/6 105/3/6
f 105/3/6 102/3/6 106/3/6
f 102/2/6 100/2/6 107/2/6
f 106/3/6 102/3/6 107/3/6
f 93/2/6 103/2/6 108/2/6
f 105/1/6 106/1/6 109/1/6
f 108/2/6 103/2/6 109/2/6
f 103/1/6 105/1/6 109/1/6
f 106/2/6 107/2/6 110/2/6
f 109/1/6 106/1/6 110/1/6
f 93/2/6 108/2/6 111/2/6
f 108/3/6 109/3/6 111/3/6
f 109/2/6 110/2/6 112/2/6
f 111/3/6 109/3/6 112/3/6
f 110/2/6 107/2/6 113/2/6
f 112/2/6 110/2/6 113/2/6
f 111/2/6 112/2/6 113/2/6
f 107/2/6 100/2/6 113/2/6
f 113/2/6 100/2/6 114/2/6
f 113/3/6 114/3/6 115/3/6
f 115/3/6 114/3/6 116/3/6
f 111/2/6 113/2/6 117/2/6
f 113/3/6 115/3/6 117/3/6
f 115/1/6 116/1/6 118/1/6
f 117/3/6 115/3/6 118/3/6
f 116/3/6 114/3/6 119/3/6
f 118/1/6 116/1/6 119/1/6
f 114/2/6 100/2/6 120/2/6
f 119/3/6 114/3/6 120/3/6
f 93/2/6 111/2/6 121/2/6
f 117/2/6 118/2/6 121/2/6
f 119/2/6 120/2/6 121/2/6
f 111/2/6 117/2/6 121/2/6
f 118/2/6 119/2/6 121/2/6
f 121/2/6 120/2/6 122/2/6
f 93/2/6 121/2/6 123/2/6
f 121/1/6 122/1/6 124/1/6
f 123/2/6 121/2/6 124/2/6
f 100/2/6 98/2/6 125/2/6
f 120/2/6 100/2/6 125/2/6
f 122/2/6 120/2/6 125/2/6
f 98/2/6 66/2/6 126/2/6
f 125/2/6 98/2/6 126/2/6
f 66/2/6 59/2/6 126/2/6
f 122/2/6 125/2/6 127/2/6
f 125/1/6 126/1/6 128/1/6
f 127/2/6 125/2/6 128/2/6
f 126/2/6 59/2/6 129/2/6
f 128/1/6 126/1/6 129/1/6
f 59/2/6 49/2/6 130/2/6
f 129/2/6 59/2/6 130/2/6
f 127/3/6 128/3/6 131/3/6
f 128/3/6 129/3/6 131/3/6
f 129/3/6 130/3/6 131/3/6
f 122/2/6 127/2/6 131/2/6
f 130/2/6 49/2/6 132/2/6
f 131/3/6 130/3/6 132/3/6
f 123/3/6 124/3/6 133/3/6
f 124/1/6 122/1/6 133/1/6
f 133/1/6 122/1/6 134/1/6
f 122/2/6 131/2/6 135/2/6
f 134/1/6 122/1/6 135/1/6
f 131/2/6 132/2/6 135/2/6
f 133/3/6 134/3/6 136/3/6
f 93/2/6 123/2/6 136/2/6
f 123/3/6 133/3/6 136/3/6
f 134/2/6 135/2/6 137/2/6
f 136/3/6 134/3/6 137/3/6
f 135/2/6 132/2/6 138/2/6
f 137/2/6 135/2/6 138/2/6
f 136/2/6 137/2/6 138/2/6
f 138/2/6 132/2/6 139/2/6
f 136/2/6 138/2/6 140/2/6
f 140/2/6 138/2/6 141/2/6
f 138/3/6 139/3/6 142/3/6
f 141/2/6 138/2/6 142/2/6
f 140/3/6 141/3/6 143/3/6
f 136/2/6 140/2/6 143/2/6
f 141/1/6 142/1/6 144/1/6
f 143/3/6 141/3/6 144/3/6
f 142/3/6 139/3/6 145/3/6
f 144/1/6 142/1/6 145/1/6
f 139/2/6 132/2/6 146/2/6
f 145/3/6 139/3/6 146/3/6
f 144/2/6 145/2/6 147/2/6
f 143/2/6 144/2/6 147/2/6
f 145/2/6 146/2/6 147/2/6
f 136/2/6 143/2/6 147/2/6
f 147/2/6 146/2/6 148/2/6
f 146/2/6 132/2/6 149/2/6
f 148/2/6 146/2/6 149/2/6
f 149/2/6 132/2/6 150/2/6
f 147/3/6 148/3/6 151/3/6
f 136/2/6 147/2/6 151/2/6
f 148/2/6 149/2/6 152/2/6
f 151/3/6 148/3/6 152/3/6
f 149/3/6 150/3/6 153/3/6
f 152/2/6 149/2/6 153/2/6
f 151/2/6 152/2/6 153/2/6
f 150/2/6 132/2/6 154/2/6
f 153/3/6 150/3/6 154/3/6
f 151/2/6 153/2/6 155/2/6
f 153/2/6 154/2/6 155/2/6
f 155/2/6 154/2/6 156/2/6
f 151/2/6 155/2/6 157/2/6
f 155/3/6 156/3/6 157/3/6
f 157/3/6 156/3/6 158/3/6
f 156/2/6 154/2/6 159/2/6
f 159/2/6 154/2/6 160/2/6
f 158/3/6 156/3/6 161/3/6
f 157/2/6 158/2/6 161/2/6
f 156/2/6 159/2/6 162/2/6
f 161/3/6 156/3/6 162/3/6
f 159/1/6 160/1/6 163/1/6
f 162/2/6 159/2/6 163/2/6
f 161/2/6 162/2/6 163/2/6
f 163/1/6 160/1/6 164/1/6
f 160/2/6 154/2/6 165/2/6
f 164/1/6 160/1/6 165/1/6
f 163/3/6 164/3/6 166/3/6
f 161/2/6 163/2/6 166/2/6
f 164/2/6 165/2/6 167/2/6
f 166/3/6 164/3/6 167/3/6
f 151/2/6 157/2/6 168/2/6
f 157/2/6 161/2/6 168/2/6
f 166/2/6 167/2/6 168/2/6
f 161/2/6 166/2/6 168/2/6
f 168/2/6 167/2/6 169/2/6
f 93/2/6 136/2/6 170/2/6
f 30/2/6 50/2/6 170/2/6
f 50/2/6 93/2/6 170/2/6
f 151/2/6 168/2/6 170/2/6
f 136/2/6 151/2/6 170/2/6
f 170/2/6 168/2/6 171/2/6
f 169/2/6 167/2/6 172/2/6
f 168/3/6 169/3/6 172/3/6
f 172/2/6 167/2/6 173/2/6
f 168/3/6 172/3/6 174/3/6
f 172/3/6 173/3/6 174/3/6
f 173/2/6 167/2/6 175/2/6
f 174/3/6 173/3/6 175/3/6
f 171/2/6 168/2/6 176/2/6
f 170/1/6 171/1/6 176/1/6
f 176/2/6 168/2/6 177/2/6
f 168/3/6 174/3/6 178/3/6
f 177/2/6 168/2/6 178/2/6
f 174/2/6 175/2/6 179/2/6
f 178/3/6 174/3/6 179/3/6
f 30/2/6 170/2/6 180/2/6
f 170/1/6 176/1/6 180/1/6
f 180/1/6 176/1/6 181/1/6
f 176/3/6 177/3/6 182/3/6
f 181/1/6 176/1/6 182/1/6
f 175/2/6 167/2/6 183/2/6
f 167/2/6 165/2/6 183/2/6
f 165/2/6 154/2/6 183/2/6
f 179/2/6 175/2/6 183/2/6
f 178/2/6 179/2/6 183/2/6
f 183/2/6 154/2/6 184/2/6
f 184/2/6 154/2/6 185/2/6
f 185/2/6 154/2/6 186/2/6
f 181/3/6 182/3/6 187/3/6
f 180/2/6 181/2/6 187/2/6
f 182/3/6 177/3/6 188/3/6
f 187/3/6 182/3/6 188/3/6
f 177/2/6 178/2/6 188/2/6
f 178/2/6 183/2/6 188/2/6
f 188/2/6 183/2/6 189/2/6
f 189/2/6 183/2/6 190/2/6
f 184/1/6 185/1/6 191/1/6
f 183/3/6 184/3/6 191/3/6
f 185/3/6 186/3/6 192/3/6
f 191/1/6 185/1/6 192/1/6
f 189/3/6 190/3/6 193/3/6
f 193/3/6 190/3/6 194/3/6
f 190/2/6 183/2/6 195/2/6
f 183/3/6 191/3/6 195/3/6
f 191/3/6 192/3/6 195/3/6
f 186/2/6 154/2/6 196/2/6
f 195/3/6 192/3/6 196/3/6
f 192/3/6 186/3/6 196/3/6
f 193/1/6 194/1/6 197/1/6
f 189/3/6 193/3/6 197/3/6
f 194/3/6 190/3/6 198/3/6
f 197/1/6 194/1/6 198/1/6
f 189/3/6 197/3/6 199/3/6
f 187/2/6 188/2/6 199/2/6
f 197/3/6 198/3/6 199/3/6
f 188/2/6 189/2/6 199/2/6
f 198/3/6 190/3/6 200/3/6
f 199/3/6 198/3/6 200/3/6
f 190/2/6 195/2/6 200/2/6
f 195/2/6 196/2/6 200/2/6
f 29/1/6 30/1/6 201/1/6
f 180/2/6 187/2/6 202/2/6
f 201/1/6 30/1/6 202/1/6
f 187/2/6 199/2/6 202/2/6
f 199/2/6 200/2/6 202/2/6
f 30/2/6 180/2/6 202/2/6
f 200/2/6 196/2/6 203/2/6
f 202/2/6 200/2/6 203/2/6
f 154/2/6 132/2/6 203/2/6
f 196/2/6 154/2/6 203/2/6
f 132/2/6 49/2/6 203/2/6
f 49/2/6 31/2/6 203/2/6
